<svg xmlns="http://www.w3.org/2000/svg" xmlns:xlink="http://www.w3.org/1999/xlink" width="112" height="112" viewBox="0 0 112 112">
    <defs>
        <linearGradient id="k4cegkmjkb" x1="49.999%" x2="49.999%" y1="-.002%" y2="100%">
            <stop offset="0%" stop-color="#F4821D"/>
            <stop offset="100%" stop-color="#FFB814"/>
        </linearGradient>
        <linearGradient id="u5eblumeve" x1="50%" x2="50%" y1="100%" y2="-.002%">
            <stop offset="0%" stop-color="#007CC8"/>
            <stop offset="100%" stop-color="#00BDF4"/>
        </linearGradient>
        <linearGradient id="mr59rc3tzh" x1="50%" x2="50%" y1="100%" y2="0%">
            <stop offset="0%" stop-color="#50B846"/>
            <stop offset="100%" stop-color="#A5CD3B"/>
        </linearGradient>
        <linearGradient id="7wdfpsu5yk" x1="49.999%" x2="49.999%" y1="-.002%" y2="100%">
            <stop offset="0%" stop-color="#EB1459"/>
            <stop offset="100%" stop-color="#EF5972"/>
        </linearGradient>
        <linearGradient id="9tdn5p2ein" x1="50%" x2="50%" y1="100%" y2="0%">
            <stop offset="0%" stop-color="#2D3190"/>
            <stop offset="100%" stop-color="#008CD1"/>
        </linearGradient>
        <linearGradient id="168t434dpq" x1="50.001%" x2="50.001%" y1=".002%" y2="100%">
            <stop offset="0%" stop-color="#462D90"/>
            <stop offset="100%" stop-color="#A52390"/>
        </linearGradient>
        <path id="cjv9b49n0a" d="M.236.119l11.193 11.194c4.977 4.976 11.85 8.055 19.445 8.055h9.236L25.895 5.153C22.785 2.043 18.489.119 13.742.119H.236z"/>
        <path id="q98e3dmtcd" d="M32.015.511c-7.596 0-14.47 3.077-19.444 8.053L0 21.135h20.38c4.747 0 9.043-1.925 12.153-5.034L48.123.51H32.015z"/>
        <path id="egpn1l058g" d="M29.815.118c-7.593 0-14.468 3.078-19.445 8.055l-9.819 9.82h27.254v-.001c4.747 0 9.044-1.924 12.155-5.035L52.8.117H29.815z"/>
        <path id="hib1o517ij" d="M.355.119l12.568 12.57c4.976 4.976 11.852 8.054 19.445 8.054h16.11l-15.59-15.59C29.779 2.043 25.483.119 20.736.119H.355z"/>
        <path id="vakg0uu3wm" d="M29.815.118c-7.593 0-14.468 3.078-19.445 8.055l-9.819 9.82h6.63v-.001c4.746 0 9.042-1.924 12.152-5.034L32.173.118h-2.358z"/>
        <path id="ay7v5vp5vp" d="M11.429 11.313c3.867 3.866 8.878 6.586 14.483 7.608L12.146 5.153C9.09 2.098 4.889.192.242.125l11.187 11.188z"/>
    </defs>
    <g fill="none" fill-rule="evenodd">
        <rect width="112" height="112" fill="#C2CBD4" rx="12"/>
        <g>
            <g transform="translate(23 33) translate(24.514 25.26)">
                <mask id="6bla9t1r5c" fill="#fff">
                    <use xlink:href="#cjv9b49n0a"/>
                </mask>
                <path fill="url(#k4cegkmjkb)" d="M.236.119l11.193 11.194c4.977 4.976 11.85 8.055 19.445 8.055h9.236L25.895 5.153C22.785 2.043 18.489.119 13.742.119H.236z" mask="url(#6bla9t1r5c)"/>
            </g>
            <g transform="translate(23 33) translate(0 .118)">
                <mask id="7l2zucoiuf" fill="#fff">
                    <use xlink:href="#q98e3dmtcd"/>
                </mask>
                <path fill="url(#u5eblumeve)" d="M32.015.511c-7.596 0-14.47 3.077-19.444 8.053L0 21.135h20.38c4.747 0 9.043-1.925 12.153-5.034L48.123.51H32.015z" mask="url(#7l2zucoiuf)"/>
            </g>
            <g transform="translate(23 33) translate(13.2 3.26)">
                <mask id="gr6d0njzvi" fill="#fff">
                    <use xlink:href="#egpn1l058g"/>
                </mask>
                <path fill="url(#mr59rc3tzh)" d="M29.815.118c-7.593 0-14.468 3.078-19.445 8.055l-9.819 9.82h27.254v-.001c4.747 0 9.044-1.924 12.155-5.035L52.8.117H29.815z" mask="url(#gr6d0njzvi)"/>
            </g>
            <g transform="translate(23 33) translate(3.771 25.26)">
                <mask id="jbdtmfwnvl" fill="#fff">
                    <use xlink:href="#hib1o517ij"/>
                </mask>
                <path fill="url(#7wdfpsu5yk)" d="M.355.119l12.568 12.57c4.976 4.976 11.852 8.054 19.445 8.054h16.11l-15.59-15.59C29.779 2.043 25.483.119 20.736.119H.355z" mask="url(#jbdtmfwnvl)"/>
            </g>
            <g transform="translate(23 33) translate(13.2 3.26)">
                <mask id="l0tx3c0uqo" fill="#fff">
                    <use xlink:href="#vakg0uu3wm"/>
                </mask>
                <path fill="url(#9tdn5p2ein)" d="M29.815.118c-7.593 0-14.468 3.078-19.445 8.055l-9.819 9.82h6.63v-.001c4.746 0 9.042-1.924 12.152-5.034L32.173.118h-2.358z" mask="url(#l0tx3c0uqo)"/>
            </g>
            <g transform="translate(23 33) translate(24.514 25.26)">
                <mask id="e97he9fxhr" fill="#fff">
                    <use xlink:href="#ay7v5vp5vp"/>
                </mask>
                <path fill="url(#168t434dpq)" d="M11.429 11.313c3.867 3.866 8.878 6.586 14.483 7.608L12.146 5.153C9.09 2.098 4.889.192.242.125l11.187 11.188z" mask="url(#e97he9fxhr)"/>
            </g>
        </g>
    </g>
</svg>
