<svg xmlns="http://www.w3.org/2000/svg" xmlns:xlink="http://www.w3.org/1999/xlink" width="112" height="112" viewBox="0 0 112 112">
    <defs>
        <linearGradient id="3ivnrzkusb" x1="49.999%" x2="49.999%" y1="-.002%" y2="100%">
            <stop offset="0%" stop-color="#F4821D"/>
            <stop offset="100%" stop-color="#FFB814"/>
        </linearGradient>
        <linearGradient id="7nox6hqlte" x1="50%" x2="50%" y1="100%" y2="-.002%">
            <stop offset="0%" stop-color="#007CC8"/>
            <stop offset="100%" stop-color="#00BDF4"/>
        </linearGradient>
        <linearGradient id="ng5jy6773h" x1="50%" x2="50%" y1="100%" y2="0%">
            <stop offset="0%" stop-color="#50B846"/>
            <stop offset="100%" stop-color="#A5CD3B"/>
        </linearGradient>
        <linearGradient id="utoqn18ork" x1="49.999%" x2="49.999%" y1="-.002%" y2="100%">
            <stop offset="0%" stop-color="#EB1459"/>
            <stop offset="100%" stop-color="#EF5972"/>
        </linearGradient>
        <linearGradient id="u3rt4hnisn" x1="50%" x2="50%" y1="100%" y2="0%">
            <stop offset="0%" stop-color="#2D3190"/>
            <stop offset="100%" stop-color="#008CD1"/>
        </linearGradient>
        <linearGradient id="us01b7w63q" x1="50.001%" x2="50.001%" y1=".002%" y2="100%">
            <stop offset="0%" stop-color="#462D90"/>
            <stop offset="100%" stop-color="#A52390"/>
        </linearGradient>
        <path id="guvoqbkqla" d="M.236.119l11.193 11.194c4.977 4.976 11.85 8.055 19.445 8.055h9.236L25.895 5.153C22.785 2.043 18.489.119 13.742.119H.236z"/>
        <path id="4wocme0asd" d="M32.015.511c-7.596 0-14.47 3.077-19.444 8.053L0 21.135h20.38c4.747 0 9.043-1.925 12.153-5.034L48.123.51H32.015z"/>
        <path id="n2xjwps10g" d="M29.815.118c-7.593 0-14.468 3.078-19.445 8.055l-9.819 9.82h27.254v-.001c4.747 0 9.044-1.924 12.155-5.035L52.8.117H29.815z"/>
        <path id="eg74i9x02j" d="M.355.119l12.568 12.57c4.976 4.976 11.852 8.054 19.445 8.054h16.11l-15.59-15.59C29.779 2.043 25.483.119 20.736.119H.355z"/>
        <path id="hckbotxmym" d="M29.815.118c-7.593 0-14.468 3.078-19.445 8.055l-9.819 9.82h6.63v-.001c4.746 0 9.042-1.924 12.152-5.034L32.173.118h-2.358z"/>
        <path id="4jwpwxsqip" d="M11.429 11.313c3.867 3.866 8.878 6.586 14.483 7.608L12.146 5.153C9.09 2.098 4.889.192.242.125l11.187 11.188z"/>
    </defs>
    <g fill="none" fill-rule="evenodd">
        <g>
            <g>
                <g transform="translate(-934 -14) translate(930 10) translate(4 4)">
                    <rect width="112" height="112" fill="#C2CBD4" rx="12"/>
                    <path fill="#FFF" fill-opacity=".35" d="M0 92h112v8c0 6.627-5.373 12-12 12H12c-6.627 0-12-5.373-12-12v-8z"/>
                    <path fill="#202020" fill-rule="nonzero" d="M13.554 105.164c.793-2.416 1.595-4.73 2.388-7.164h-1.129c-.634 1.987-1.25 3.88-1.847 5.886-.597-2.006-1.203-3.9-1.837-5.886H10c.784 2.435 1.586 4.748 2.379 7.164h1.175zm4.132.01V98h-1.082v7.173h1.082zm5.82 0v-.915h-3.441v-2.537h3.209v-.905h-3.21v-1.912h3.443V98h-4.515v7.173h4.515zm3.387-.01c.382-1.68.774-3.265 1.156-4.953.075-.327.112-.625.196-.933.42 2.005.886 3.899 1.343 5.886h1.166c.607-2.416 1.204-4.73 1.81-7.164h-1.1c-.439 1.987-.868 3.871-1.27 5.858L28.853 98h-1.213c-.457 1.987-.933 3.862-1.334 5.849-.401-1.987-.84-3.862-1.278-5.849h-1.11c.606 2.435 1.203 4.748 1.81 7.164h1.166zm11.137.01v-.915h-3.442v-2.537h3.209v-.905h-3.209v-1.912h3.442V98h-4.514v7.173h4.514zm2.127 0v-2.818h1.082l1.418 2.817H44l-1.772-3.003v-.02c.858-.298 1.455-.904 1.455-2.06 0-1.232-.905-2.09-2.547-2.09h-2.061v7.173h1.082zm.849-3.676h-.858v-2.603h1.11c.746 0 1.324.392 1.324 1.222 0 1.073-.513 1.38-1.576 1.38z"/>
                    <g>
                        <g transform="translate(23 33) translate(24.514 25.26)">
                            <mask id="w0fsv2mdyc" fill="#fff">
                                <use xlink:href="#guvoqbkqla"/>
                            </mask>
                            <path fill="url(#3ivnrzkusb)" d="M.236.119l11.193 11.194c4.977 4.976 11.85 8.055 19.445 8.055h9.236L25.895 5.153C22.785 2.043 18.489.119 13.742.119H.236z" mask="url(#w0fsv2mdyc)"/>
                        </g>
                        <g transform="translate(23 33) translate(0 .118)">
                            <mask id="451ko38y2f" fill="#fff">
                                <use xlink:href="#4wocme0asd"/>
                            </mask>
                            <path fill="url(#7nox6hqlte)" d="M32.015.511c-7.596 0-14.47 3.077-19.444 8.053L0 21.135h20.38c4.747 0 9.043-1.925 12.153-5.034L48.123.51H32.015z" mask="url(#451ko38y2f)"/>
                        </g>
                        <g transform="translate(23 33) translate(13.2 3.26)">
                            <mask id="ckstccl38i" fill="#fff">
                                <use xlink:href="#n2xjwps10g"/>
                            </mask>
                            <path fill="url(#ng5jy6773h)" d="M29.815.118c-7.593 0-14.468 3.078-19.445 8.055l-9.819 9.82h27.254v-.001c4.747 0 9.044-1.924 12.155-5.035L52.8.117H29.815z" mask="url(#ckstccl38i)"/>
                        </g>
                        <g transform="translate(23 33) translate(3.771 25.26)">
                            <mask id="3r569v8d5l" fill="#fff">
                                <use xlink:href="#eg74i9x02j"/>
                            </mask>
                            <path fill="url(#utoqn18ork)" d="M.355.119l12.568 12.57c4.976 4.976 11.852 8.054 19.445 8.054h16.11l-15.59-15.59C29.779 2.043 25.483.119 20.736.119H.355z" mask="url(#3r569v8d5l)"/>
                        </g>
                        <g transform="translate(23 33) translate(13.2 3.26)">
                            <mask id="ew5lgtl1ro" fill="#fff">
                                <use xlink:href="#hckbotxmym"/>
                            </mask>
                            <path fill="url(#u3rt4hnisn)" d="M29.815.118c-7.593 0-14.468 3.078-19.445 8.055l-9.819 9.82h6.63v-.001c4.746 0 9.042-1.924 12.152-5.034L32.173.118h-2.358z" mask="url(#ew5lgtl1ro)"/>
                        </g>
                        <g transform="translate(23 33) translate(24.514 25.26)">
                            <mask id="ddeymm8ujr" fill="#fff">
                                <use xlink:href="#4jwpwxsqip"/>
                            </mask>
                            <path fill="url(#us01b7w63q)" d="M11.429 11.313c3.867 3.866 8.878 6.586 14.483 7.608L12.146 5.153C9.09 2.098 4.889.192.242.125l11.187 11.188z" mask="url(#ddeymm8ujr)"/>
                        </g>
                    </g>
                </g>
            </g>
        </g>
    </g>
</svg>
