<svg xmlns="http://www.w3.org/2000/svg" width="112" height="112" viewBox="0 0 112 112">
    <g fill="none" fill-rule="evenodd">
        <rect width="112" height="112" fill="#148FD0" rx="12"/>
        <path fill="#FFF" d="M55.598 63.885c1.765.006 3.192 1.44 3.188 3.205-.004 1.765-1.436 3.194-3.202 3.192-1.765-.002-3.195-1.433-3.195-3.199.002-.85.34-1.663.942-2.263.602-.6 1.417-.936 2.267-.935zm-2.012-24.057V35h4.506v4.828h10.942l.021 4.505h-26.09v-4.505h10.621zm-7.08 32.183H70v4.506H42v-10.62h4.506v6.114zm8.885-26.783c4.871.003 8.818 3.953 8.816 8.824-.002 4.87-3.951 8.818-8.822 8.817-4.87 0-8.819-3.95-8.819-8.82 0-2.34.931-4.584 2.586-6.238 1.655-1.654 3.9-2.583 6.24-2.583zm.006 4.416c1.786-.004 3.4 1.069 4.086 2.718.687 1.65.312 3.55-.95 4.815-1.262 1.265-3.162 1.645-4.813.962-1.652-.683-2.728-2.293-2.728-4.08-.002-1.17.461-2.292 1.287-3.12.826-.828 1.948-1.294 3.118-1.295z"/>
    </g>
</svg>
