<svg xmlns="http://www.w3.org/2000/svg" width="112" height="112" viewBox="0 0 112 112">
    <g fill="none" fill-rule="evenodd">
        <g>
            <g>
                <g transform="translate(-934 -274) translate(930 270) translate(4 4)">
                    <rect width="112" height="112" fill="#252626" rx="12"/>
                    <path fill="#00A468" d="M68.39 59.23l7.31-6.927c.13-.129.835-.962-.512-.962H63.835c-1.025 0-.641-.642-.512-.77L75.7 38.898c.129-.128.45-.898-.577-.898h-9.3c-.706 0-1.09.385-1.155.45L46.711 55.446c-.257.256-.641.064-.641-.257V40.566h1.347c.256 0 .449-.192.449-.45V38.45c0-.258-.193-.45-.45-.45H36.45c-.257 0-.449.192-.449.45v1.667c0 .257.192.449.449.449h1.347v32.71c0 .898.705.834 1.154.385l16.997-16.099c.512-.512 1.603-1.09 2.373-1.09h2.95c.962 0 .641.641.513.834l-5.965 5.644c-.128.128-.448.577.32.577h6.159c.384 0 .513.449.255.706l-9.62 9.107c-.192.193-.128.641.32.641h8.788c1.154 0 2.18-.705 2.373-.897l5.324-5.067c1.539-1.411 2.822-2.63 3.335-3.784 1.283-2.758-.45-4.618-4.234-4.618h-.256c-.578 0-.578 0-.192-.385"/>
                </g>
            </g>
        </g>
    </g>
</svg>
