<svg xmlns="http://www.w3.org/2000/svg" width="48" height="48" viewBox="0 0 48 48">
    <g fill="none" fill-rule="evenodd">
        <circle cx="24" cy="24" r="24" fill="#209DDF"/>
        <path fill="#FFF" fill-rule="nonzero" d="M24 46c12.15 0 22-9.85 22-22S36.15 2 24 2 2 11.85 2 24s9.85 22 22 22zm0 2C10.745 48 0 37.255 0 24S10.745 0 24 0s24 10.745 24 24-10.745 24-24 24z"/>
        <path fill="#FFF" d="M23.741 29.569c1.135.004 2.052.926 2.05 2.06-.002 1.135-.923 2.053-2.058 2.052-1.135 0-2.054-.921-2.054-2.056 0-.546.218-1.07.605-1.455.387-.386.911-.602 1.457-.601zm-1.293-15.466V11h2.897v3.103h7.034L32.393 17H15.62v-2.897h6.827zm-4.551 20.69H33v2.897H15v-6.828h2.897v3.931zm5.712-17.218c3.13.002 5.668 2.541 5.667 5.673-.001 3.13-2.54 5.668-5.671 5.668-3.131 0-5.67-2.54-5.67-5.67 0-1.504.599-2.947 1.663-4.01 1.064-1.064 2.506-1.661 4.01-1.66zm.003 2.839c1.149-.003 2.186.687 2.627 1.747.442 1.06.2 2.283-.61 3.096-.812.813-2.034 1.057-3.095.618-1.061-.439-1.754-1.474-1.754-2.623 0-.752.297-1.473.828-2.006.531-.532 1.252-.831 2.004-.832z"/>
    </g>
</svg>
